<svg xmlns="http://www.w3.org/2000/svg" viewBox="0 0 512 512" width="512" height="512">
  <defs><linearGradient id="g" x1="0.05" y1="0.05" x2="0.95" y2="0.95">
    <stop offset="0" stop-color="#4a9eff"/><stop offset="1" stop-color="#9b7aff"/></linearGradient></defs>
  <rect width="512" height="512" fill="#F4F6F8"/>
  <g stroke="url(#g)" stroke-width="11" opacity="0.4" stroke-linecap="round">
    <line x1="256" y1="256" x2="256" y2="112"/><line x1="256" y1="256" x2="381" y2="184"/>
    <line x1="256" y1="256" x2="381" y2="328"/><line x1="256" y1="256" x2="256" y2="400"/>
    <line x1="256" y1="256" x2="131" y2="328"/><line x1="256" y1="256" x2="131" y2="184"/></g>
  <polygon points="256,112 381,184 381,328 256,400 131,328 131,184" fill="none"
           stroke="url(#g)" stroke-width="12" opacity="0.55" stroke-linejoin="round"/>
  <g fill="url(#g)"><circle cx="256" cy="112" r="27"/><circle cx="381" cy="184" r="27"/><circle cx="381" cy="328" r="27"/>
    <circle cx="256" cy="400" r="27"/><circle cx="131" cy="328" r="27"/><circle cx="131" cy="184" r="27"/></g>
  <circle cx="256" cy="256" r="70" fill="#F4F6F8"/>
  <circle cx="256" cy="256" r="70" fill="none" stroke="url(#g)" stroke-width="9" opacity="0.5"/>
  <circle cx="256" cy="256" r="52" fill="url(#g)"/>
</svg>
